:SAMPLES-PER-SECOND 30
:FULLY-SPECIFIED
:DEGREES
182
root  43.7455 36.2244 7.48631 77.8869 85.3532 38.5921
RightUpLeg  -79.9663 -20.9598 23.7325
RightLeg  40.4155 1.13523 0.744266
RightFoot  -1.33641 1.07785 -12.3543
RightToes  0.00048216 0.542163 -0.142577
Spine  70.2456 -5.02424 8.45391
Spine1  7.16197 2.15688 -6.48311
HEad  -38.2901 -11.0797 3.37353
LeftShoulder1  6.00675 -27.7 -11.9662
LeftArm  -91.2569 -64.7914 30.101
LeftForeArm  6.79387 -17.2577 -0.855486
LeftHand  -0.25398 0.0180481 5.50724
RightShoulder  2.85848 14.0056 8.93261
RightArm  -82.5407 52.981 -26.1479
RightForeArm  -16.6496 17.418 3.37375
RightHand  -3.65688 14.1649 -21.9497
LeftUpLeg  -71.5857 15.6485 -13.676
LeftLeg  40.3229 -2.60274 -1.98283
LeftFoot  -5.51628 0.0414244 -0.1443
LeftToes  1.06246e-005 4.65856e-005 -8.18501e-006
183
root  43.4914 36.1555 7.17927 70.7437 85.2072 32.4703
RightUpLeg  -79.2251 -20.9517 23.0565
RightLeg  40.2746 1.08339 0.693108
RightFoot  -1.01625 1.09448 -12.1299
RightToes  0.00048216 0.542163 -0.142577
Spine  70.1596 -4.92076 8.54116
Spine1  7.05058 2.30629 -6.39296
HEad  -37.7043 -10.8376 2.06575
LeftShoulder1  6.4724 -28.0286 -13.3556
LeftArm  -90.1413 -66.0672 32.7327
LeftForeArm  4.56418 -14.3815 0.471306
LeftHand  -0.25398 0.0180481 5.50724
RightShoulder  2.87198 13.9235 9.10499
RightArm  -81.2626 54.581 -28.2928
RightForeArm  -20.9696 13.3676 2.10855
RightHand  -4.14269 14.8165 -23.9256
LeftUpLeg  -71.4424 15.4926 -13.3473
LeftLeg  41.4158 -1.90998 -1.41476
LeftFoot  -5.46046 0.0293799 0.0794304
LeftToes  1.06246e-005 4.65856e-005 -8.18501e-006
184
root  43.1411 36.0988 6.82718 63.0632 85.0318 26.0788
RightUpLeg  -78.0819 -20.9691 22.36
RightLeg  39.6463 0.932233 0.541088
RightFoot  -0.59832 1.14616 -12.1701
RightToes  0.00048216 0.542163 -0.142577
Spine  69.901 -4.77266 8.64809
Spine1  6.87996 2.47978 -6.26685
HEad  -36.5232 -10.3906 0.313677
LeftShoulder1  6.85184 -28.6304 -14.2093
LeftArm  -87.9838 -66.8509 34.86
LeftForeArm  4.92523 -11.1941 0.904303
LeftHand  -0.25398 0.0180481 5.50724
RightShoulder  2.82899 14.0398 8.70964
RightArm  -79.4492 55.9641 -30.3913
RightForeArm  -23.6937 8.76643 1.56819
RightHand  -5.35543 16.3532 -28.4103
LeftUpLeg  -71.096 15.3006 -12.9889
LeftLeg  42.3104 -1.1237 -0.70136
LeftFoot  -5.17156 -0.00289906 0.62714
LeftToes  1.06246e-005 4.65856e-005 -8.18501e-006
185
root  42.7148 36.0889 6.41383 55.1927 84.8051 20.0928
RightUpLeg  -76.2124 -21.1451 21.3279
RightLeg  38.6736 0.849545 0.447127
RightFoot  0.38897 1.26517 -12.2307
RightToes  0.00048216 0.542163 -0.142577
Spine  69.6302 -4.67746 8.78654
Spine1  6.8966 2.64718 -6.09455
HEad  -34.5939 -9.59584 -1.82408
LeftShoulder1  7.23572 -29.4565 -14.8739
LeftArm  -86.6064 -67.5318 37.2481
LeftForeArm  9.24643 -7.82528 0.418663
LeftHand  -0.25398 0.0180481 5.50724
RightShoulder  2.74872 14.2659 7.97323
RightArm  -77.3959 57.2483 -32.424
RightForeArm  -21.0436 3.92715 1.53153
RightHand  -6.95667 18.4649 -33.3797
LeftUpLeg  -69.9768 15.3176 -12.7362
LeftLeg  42.6961 -0.528651 -0.126137
LeftFoot  -4.92644 -0.0570102 1.5493
LeftToes  1.06246e-005 4.65856e-005 -8.18501e-006
186
root  42.2427 36.143 5.94195 48.4021 84.4895 15.6018
RightUpLeg  -73.8198 -21.4742 19.8964
RightLeg  37.3616 0.926362 0.48444
RightFoot  1.86918 1.39263 -11.8654
RightToes  0.00048216 0.542163 -0.142577
Spine  69.2597 -4.61207 8.79052
Spine1  7.17751 2.67018 -5.83422
HEad  -32.3974 -8.31001 -4.19411
LeftShoulder1  7.54252 -30.0524 -15.4278
LeftArm  -85.817 -68.5697 39.2948
LeftForeArm  15.014 -4.21431 -0.202579
LeftHand  -0.25398 0.0180481 5.50724
RightShoulder  2.70721 14.4703 7.51595
RightArm  -75.2354 58.9138 -33.639
RightForeArm  -13.1435 -0.975526 1.40047
RightHand  -7.49549 18.9812 -35.0422
LeftUpLeg  -68.0836 15.6497 -12.878
LeftLeg  42.2894 -0.279595 0.123214
LeftFoot  -4.83308 -0.130701 2.81313
LeftToes  1.06246e-005 4.65856e-005 -8.18501e-006
187
root  41.7476 36.2471 5.42487 43.3809 84.2205 13.0378
RightUpLeg  -71.1741 -22.058 18.4053
RightLeg  35.6003 0.959077 0.473192
RightFoot  3.38805 1.47595 -11.1923
RightToes  0.00048216 0.542163 -0.142577
Spine  68.5712 -4.62349 8.60624
Spine1  7.72487 2.39394 -5.54178
HEad  -30.5877 -6.49629 -6.62729
LeftShoulder1  7.62469 -29.9965 -15.7337
LeftArm  -83.2039 -69.8368 37.9638
LeftForeArm  18.8758 -1.07482 -0.713928
LeftHand  -0.25398 0.0180481 5.50724
RightShoulder  2.81606 14.6681 8.00145
RightArm  -72.5442 60.8764 -31.7999
RightForeArm  -4.12696 -4.4142 1.22177
RightHand  -6.52462 17.2465 -32.959
LeftUpLeg  -65.7293 16.164 -13.399
LeftLeg  41.1702 -0.257532 0.148113
LeftFoot  -4.63655 -0.227597 4.35746
LeftToes  1.06246e-005 4.65856e-005 -8.18501e-006
188
root  41.2374 36.3877 4.85678 37.1208 83.87 9.37862
RightUpLeg  -68.0073 -22.6039 16.9645
RightLeg  33.2001 0.958259 0.419814
RightFoot  5.2461 1.60821 -10.7369
RightToes  0.00048216 0.542163 -0.142577
Spine  67.6153 -4.752 8.18636
Spine1  8.47642 1.99778 -5.65968
HEad  -29.0926 -4.18376 -9.14272
LeftShoulder1  7.65086 -29.2871 -16.3727
LeftArm  -76.0222 -70.7469 31.0918
LeftForeArm  19.2717 0.874385 -1.37576
LeftHand  -0.25398 0.0180481 5.50724
RightShoulder  3.11216 15.0208 9.45225
RightArm  -66.6693 62.3095 -24.8154
RightForeArm  0.199067 -5.08474 1.52321
RightHand  -5.30809 14.8827 -30.1817
LeftUpLeg  -63.1397 16.9196 -13.9188
LeftLeg  39.7394 -0.201775 0.202249
LeftFoot  -4.08164 -0.354332 5.96321
LeftToes  1.06246e-005 4.65856e-005 -8.18501e-006
189
root  40.7226 36.5973 4.26108 29.0368 83.4239 4.28217
RightUpLeg  -63.7619 -22.9969 15.3387
RightLeg  29.9743 1.30647 0.567117
RightFoot  7.76013 1.76926 -10.1754
RightToes  0.00048216 0.542163 -0.142577
Spine  66.6002 -4.94095 7.69876
Spine1  9.42979 1.64559 -5.98812
HEad  -27.2737 -1.43312 -11.9083
LeftShoulder1  7.98313 -28.3033 -18.298
LeftArm  -64.5206 -70.6442 19.9537
LeftForeArm  17.6979 1.92463 -2.32436
LeftHand  -0.25398 0.0180481 5.50724
RightShoulder  3.53193 15.5285 11.4032
RightArm  -56.5017 62.2155 -13.6219
RightForeArm  -1.00643 -3.93503 2.61004
RightHand  -4.76546 13.51 -29.124
LeftUpLeg  -59.9802 17.9155 -14.0299
LeftLeg  37.9926 -0.137276 0.260154
LeftFoot  -3.08479 -0.510968 7.32581
LeftToes  1.06246e-005 4.65856e-005 -8.18501e-006
190
root  40.2273 36.9055 3.68227 21.0942 82.9369 -0.561893
RightUpLeg  -58.6022 -23.3525 13.5773
RightLeg  25.5978 1.88768 0.733287
RightFoot  9.9823 1.60555 -8.15442
RightToes  0.00048216 0.542163 -0.142577
Spine  65.3682 -4.99195 7.27573
Spine1  10.6779 1.43078 -6.07018
HEad  -25.1251 1.59598 -14.921
LeftShoulder1  8.5952 -27.3491 -21.2617
LeftArm  -51.5483 -68.9967 7.20316
LeftForeArm  16.5038 2.66541 -3.17574
LeftHand  -0.25398 0.0180481 5.50724
RightShoulder  3.98442 15.8767 13.6126
RightArm  -45.0551 60.2946 -1.8671
RightForeArm  -3.08353 -2.75151 3.88793
RightHand  -4.70222 13.1664 -29.2509
LeftUpLeg  -56.2392 19.0799 -13.8615
LeftLeg  35.4874 -0.279856 0.152768
LeftFoot  -1.68102 -0.697428 8.35744
LeftToes  1.06246e-005 4.65856e-005 -8.18501e-006
191
root  39.7682 37.2653 3.15924 14.6464 82.4273 -4.32298
RightUpLeg  -53.2759 -23.7339 11.8335
RightLeg  20.6003 1.29273 0.52488
RightFoot  10.3665 0.902339 -4.29592
RightToes  0.00048216 0.542163 -0.142577
Spine  63.7218 -4.84273 6.86923
Spine1  12.1117 1.38984 -5.95445
HEad  -23.3353 4.59051 -17.9408
LeftShoulder1  9.22248 -26.4176 -24.4035
LeftArm  -39.8339 -65.1959 -4.81816
LeftForeArm  16.2047 2.88603 -3.67372
LeftHand  -0.25398 0.0180481 5.50724
RightShoulder  4.4511 15.9257 16.1841
RightArm  -35.1181 56.7074 8.00484
RightForeArm  -3.46043 -1.67814 4.93301
RightHand  -4.53532 12.6753 -28.991
LeftUpLeg  -52.4923 20.4513 -13.8238
LeftLeg  32.1931 -0.757998 -0.156726
LeftFoot  -0.0146259 -0.918626 9.24102
LeftToes  1.06246e-005 4.65856e-005 -8.18501e-006
192
root  39.3198 37.6096 2.70995 8.61142 81.8834 -7.99179
RightUpLeg  -48.3045 -23.9119 9.89693
RightLeg  17.4757 -1.44022 0.0346479
RightFoot  8.6754 0.130863 -0.388939
RightToes  0.00048216 0.542163 -0.142577
Spine  61.8329 -4.5876 6.55216
Spine1  13.3221 1.47693 -5.83285
HEad  -22.0147 7.22355 -20.7908
LeftShoulder1  9.88627 -25.4295 -27.8919
LeftArm  -30.9244 -58.9588 -13.6341
LeftForeArm  16.1591 2.14282 -4.14999
LeftHand  -0.25398 0.0180481 5.50724
RightShoulder  4.9705 15.8815 19.1423
RightArm  -26.8589 51.4329 15.3003
RightForeArm  -4.21217 0.274926 6.09958
RightHand  -4.10789 11.4779 -28.1671
LeftUpLeg  -48.9831 22.1421 -13.8224
LeftLeg  28.6133 -1.57896 -0.585345
LeftFoot  1.74346 -1.16603 10.0472
LeftToes  1.06246e-005 4.65856e-005 -8.18501e-006
193
root  38.8366 37.9265 2.3325 2.16777 81.1497 -12.1017
RightUpLeg  -44.797 -24.2249 9.14607
RightLeg  19.2765 -3.35468 -1.32047
RightFoot  6.00553 -0.19543 1.5292
RightToes  0.00048216 0.542163 -0.142577
Spine  60.1641 -4.26513 6.40248
Spine1  13.6676 1.57693 -5.74297
HEad  -20.3097 9.80039 -23.3826
LeftShoulder1  10.6363 -24.1487 -32.2947
LeftArm  -24.5582 -50.6794 -18.2783
LeftForeArm  16.2185 0.696385 -4.89801
LeftHand  -0.25398 0.0180481 5.50724
RightShoulder  5.59299 15.9832 22.3995
RightArm  -19.5821 44.6483 20.0559
RightForeArm  -6.38742 3.17711 7.60256
RightHand  -3.60049 9.96914 -27.1595
LeftUpLeg  -45.5753 24.1094 -13.4992
LeftLeg  25.0238 -2.63409 -1.00276
LeftFoot  3.61202 -1.41545 10.5874
LeftToes  1.06246e-005 4.65856e-005 -8.18501e-006
194
root  38.311 38.2116 2.03235 -3.10092 80.2486 -15.0972
RightUpLeg  -41.3535 -21.6308 6.45997
RightLeg  25.805 -6.57787 -3.72948
RightFoot  3.39091 -0.151996 1.33524
RightToes  0.00048216 0.542163 -0.142577
Spine  58.9764 -4.00748 6.16279
Spine1  12.6309 1.50138 -5.92385
HEad  -17.7266 13.3467 -25.5592
LeftShoulder1  11.1454 -22.274 -37.0165
LeftArm  -19.7814 -40.7772 -19.891
LeftForeArm  16.3292 -1.02824 -5.68566
LeftHand  -0.25398 0.0180481 5.50724
RightShoulder  6.34164 16.3187 25.8661
RightArm  -13.0424 37.0419 23.1055
RightForeArm  -7.73938 6.12323 8.99216
RightHand  -3.12998 8.61441 -25.9433
LeftUpLeg  -42.3149 26.2488 -13.0669
LeftLeg  21.3955 -3.93145 -1.30258
LeftFoot  5.73131 -1.6596 10.7905
LeftToes  1.06246e-005 4.65856e-005 -8.18501e-006
